# xmcd
#
# Track frame offsets: 
#        150
#        11771
#        23630
#        37410
#        46669
#        58534
#        67795
#        79321
#        90703
#        103061
#        115003
#        126672
#        139072
#        148479
#        160036
#        173072
#        183413
#        196499
#        209385
#        223973
#        237142
#        249277
#        262409
#        275080
#        287732
#
# Disc length: 3981 seconds
#
# Revision: 3
# Processed by: cddbd v1.5.2PL0 Copyright (c) Steve Scherf et al.
# Submitted via: ExactAudioCopyFreeDBPlugin 1.0
#
DISCID=830f8b19
DTITLE=Various Artist - Rhythm 'n' Blues:  Fine Brown Sugar [Membran 
DTITLE=Music] [Box Set]
DYEAR=2005
DGENRE=Rhythm and Blues
TTITLE0=Jewel Akens - 3 X 7 =21
TTITLE1=Myra Johnson - Silent George
TTITLE2=Donna Hightower - I Ain't in the Mood
TTITLE3=Bertice Reading - I'll Never Do it Again
TTITLE4=Lavern Baker - How Can You Leave a Man Like This
TTITLE5=Big Mama Thornton - They Call Me Big Mama
TTITLE6=Big Maybelle - So Good to My Baby
TTITLE7=Ruth Brown - Wild Wild Young Men
TTITLE8=Helen Humes - Be-Baba-Le-Ba
TTITLE9=Mabel Scott - Baseball Boogie
TTITLE10=Albinia Jones - Hey Little Boy
TTITLE11=Lil Green - How Come You Do Me Like You Do
TTITLE12=Annisteen Allen - Down By the River
TTITLE13=Terry Timmons - Mr. Low Love
TTITLE14=Little Esther - Ring-A-Ding-Doo
TTITLE15=Erline Harris - Jump and Shout
TTITLE16=Fluffy Hunter - The Walkin' Blues
TTITLE17=Julia Lee - A Porter's Love Song (To a Chamber Maid)
TTITLE18=Lu Barker - Here's a Little Girl
TTITLE19=Dorothy Ellis - Drill, Daddy, Drill
TTITLE20=Cherri Lynn - Your Money Ain't Long Enough
TTITLE21=Vivian Greene - He's the Man
TTITLE22=Gladys Hill - Please Don't Touch My Bowl
TTITLE23=Faye Adams - I'll Be True to You
TTITLE24=Hadda Brooks - Jump Back, Honey
EXTD=
EXTT0=
EXTT1=
EXTT2=
EXTT3=
EXTT4=
EXTT5=
EXTT6=
EXTT7=
EXTT8=
EXTT9=
EXTT10=
EXTT11=
EXTT12=
EXTT13=
EXTT14=
EXTT15=
EXTT16=
EXTT17=
EXTT18=
EXTT19=
EXTT20=
EXTT21=
EXTT22=
EXTT23=
EXTT24=
PLAYORDER=
